# xmcd
#
# Track frame offsets:
#	150
#	10314
#	22644
#	35479
#	47451
#	57689
#	69782
#	80985
#	90758
#	105230
#
# Disc length: 1543 seconds
# Revision: 0
# Processed by: cddbd v1.5.2PL0 Copyright (c) Steve Scherf et al.
# Submitted via: dBpowerAMP V12.0
#
DISCID=6906050a
DTITLE=The Statler Brothers - The Legend Goes On
DYEAR=1900
DGENRE=Country
TTITLE0=Whatever
TTITLE1=I Had Too Much To Dream
TTITLE2=I Don't Know Why
TTITLE3=Life's A Railway To Heaven
TTITLE4=How Do You Like Your Dream So Far
TTITLE5=Child Of The Fifties
TTITLE6=That's When It Comes Home To You
TTITLE7=I Don't Dance No More
TTITLE8=What You Are To Me
TTITLE9=(I'll Love You) All Over Again
EXTD=
EXTT0=
EXTT1=
EXTT2=
EXTT3=
EXTT4=
EXTT5=
EXTT6=
EXTT7=
EXTT8=
EXTT9=
PLAYORDER=
